# xmcd
#
# Track frame offsets:
#	150
#	19126
#	30281
#	42805
#	54779
#	65302
#	79554
#	91275
#	104168
#	119410
#
# Disc length: 1769 seconds
#
# Revision: 1
# Processed by: cddbd v1.5.1PL2 Copyright (c) Steve Scherf et al.
# Submitted via: audiograbber 1.83.01
#
DISCID=7106e70a
DTITLE=Orion - Reborn
DYEAR=1979
DGENRE=Country
TTITLE0=Honey
TTITLE1=Lover please
TTITLE2=Got you on my mind
TTITLE3=Mona Lisa
TTITLE4=Before the next teardrop falls
TTITLE5=Ebony Eyes
TTITLE6=Washing machine
TTITLE7=Baby, I still love you
TTITLE8=You can have her
TTITLE9=Lonesome angel
EXTD=
EXTT0=
EXTT1=
EXTT2=
EXTT3=
EXTT4=
EXTT5=
EXTT6=
EXTT7=
EXTT8=
EXTT9=
PLAYORDER=
